<svg width="76" height="75" viewBox="0 0 76 75" fill="none" xmlns="http://www.w3.org/2000/svg">
<g clip-path="url(#clip0_69_27)">
<path d="M74.3488 31.2312C74.3488 30.9161 74.229 30.6011 73.9886 30.3606C73.5077 29.8798 72.729 29.8798 72.2482 30.3606L37.4242 65.1846L2.60101 30.3606C2.12099 29.8798 1.34065 29.8798 0.86063 30.3606C0.37979 30.8415 0.37979 31.6202 0.86063 32.101L36.5544 67.7948C37.0344 68.2756 37.8148 68.2756 38.2948 67.7948L73.9886 32.101C74.229 31.8614 74.3488 31.5463 74.3488 31.2312Z" fill="#EFEFEF"/>
<path d="M75.0988 11.7312C75.0988 11.4161 74.979 11.1011 74.7386 10.8606C74.2577 10.3798 73.479 10.3798 72.9982 10.8606L38.1742 45.6846L3.35101 10.8606C2.87099 10.3798 2.09065 10.3798 1.61063 10.8606C1.12979 11.3415 1.12979 12.1202 1.61063 12.601L37.3044 48.2948C37.7844 48.7756 38.5648 48.7756 39.0448 48.2948L74.7386 12.601C74.979 12.3614 75.0988 12.0463 75.0988 11.7312Z" fill="#EFEFEF"/>
</g>
<defs>
<clipPath id="clip0_69_27">
<rect width="75" height="75" fill="white" transform="translate(0.5)"/>
</clipPath>
</defs>
</svg>
