<svg width="151" height="54" viewBox="0 0 151 54" fill="none" xmlns="http://www.w3.org/2000/svg">
<rect width="38.0426" height="38.0426" rx="7" transform="matrix(0.704473 0.70973 -0.704473 0.70973 26.7998 0)" fill="white"/>
<g clip-path="url(#clip0_209_2)">
<path d="M32.4405 42.2588H21.5489C19.5355 42.2588 17.8975 40.6082 17.8975 38.5801V15.8116C17.8975 13.7831 19.5355 12.1329 21.5489 12.1329H32.4405C34.4539 12.1329 36.0919 13.7831 36.0919 15.8116V38.5801C36.0919 40.6082 34.4536 42.2588 32.4405 42.2588ZM21.5489 14.1413C20.6349 14.1413 19.891 14.8908 19.891 15.8116V38.5801C19.891 39.5013 20.6349 40.2504 21.5489 40.2504H32.4405C33.3549 40.2504 34.0984 39.5013 34.0984 38.5801V15.8116C34.0984 14.8908 33.3549 14.1413 32.4405 14.1413H21.5489Z" fill="black"/>
<path d="M26.9939 38.7528C27.7642 38.7528 28.3887 38.1237 28.3887 37.3476C28.3887 36.5715 27.7642 35.9424 26.9939 35.9424C26.2236 35.9424 25.5991 36.5715 25.5991 37.3476C25.5991 38.1237 26.2236 38.7528 26.9939 38.7528Z" fill="black"/>
<path d="M28.9831 17.737H25.006C24.4555 17.737 24.0093 17.2875 24.0093 16.7328C24.0093 16.1782 24.4555 15.7286 25.006 15.7286H28.9834C29.534 15.7286 29.9802 16.1782 29.9802 16.7328C29.9802 17.2875 29.534 17.737 28.9831 17.737Z" fill="black"/>
</g>
<path d="M66.254 31.2374C65.404 31.2374 64.614 31.1024 63.884 30.8324C63.164 30.5624 62.539 30.1824 62.009 29.6924C61.479 29.1924 61.064 28.6074 60.764 27.9374C60.474 27.2674 60.329 26.5374 60.329 25.7474C60.329 24.9474 60.474 24.2174 60.764 23.5574C61.064 22.8874 61.479 22.3074 62.009 21.8174C62.539 21.3174 63.164 20.9324 63.884 20.6624C64.614 20.3924 65.404 20.2574 66.254 20.2574C67.114 20.2574 67.904 20.3924 68.624 20.6624C69.344 20.9324 69.969 21.3174 70.499 21.8174C71.029 22.3074 71.439 22.8874 71.729 23.5574C72.029 24.2174 72.179 24.9474 72.179 25.7474C72.179 26.5374 72.029 27.2674 71.729 27.9374C71.439 28.6074 71.029 29.1924 70.499 29.6924C69.969 30.1824 69.344 30.5624 68.624 30.8324C67.904 31.1024 67.114 31.2374 66.254 31.2374ZM66.254 28.3724C66.584 28.3724 66.889 28.3124 67.169 28.1924C67.459 28.0724 67.709 27.9024 67.919 27.6824C68.139 27.4524 68.309 27.1774 68.429 26.8574C68.549 26.5274 68.609 26.1574 68.609 25.7474C68.609 25.3374 68.549 24.9724 68.429 24.6524C68.309 24.3224 68.139 24.0474 67.919 23.8274C67.709 23.5974 67.459 23.4224 67.169 23.3024C66.889 23.1824 66.584 23.1224 66.254 23.1224C65.924 23.1224 65.614 23.1824 65.324 23.3024C65.044 23.4224 64.794 23.5974 64.574 23.8274C64.364 24.0474 64.199 24.3224 64.079 24.6524C63.959 24.9724 63.899 25.3374 63.899 25.7474C63.899 26.1574 63.959 26.5274 64.079 26.8574C64.199 27.1774 64.364 27.4524 64.574 27.6824C64.794 27.9024 65.044 28.0724 65.324 28.1924C65.614 28.3124 65.924 28.3724 66.254 28.3724ZM79.3889 31.2374C77.7789 31.2374 76.5239 30.8024 75.6239 29.9324C74.7239 29.0624 74.2739 27.8424 74.2739 26.2724V20.4974H77.8139V26.1674C77.8139 26.9674 77.9589 27.5374 78.2489 27.8774C78.5389 28.2074 78.9289 28.3724 79.4189 28.3724C79.9189 28.3724 80.3089 28.2074 80.5889 27.8774C80.8789 27.5374 81.0239 26.9674 81.0239 26.1674V20.4974H84.5039V26.2724C84.5039 27.8424 84.0539 29.0624 83.1539 29.9324C82.2539 30.8024 80.9989 31.2374 79.3889 31.2374ZM87.0266 30.9974V20.4974H92.0816C93.0616 20.4974 93.9066 20.6574 94.6166 20.9774C95.3366 21.2974 95.8916 21.7574 96.2816 22.3574C96.6716 22.9474 96.8666 23.6474 96.8666 24.4574C96.8666 25.2674 96.6716 25.9674 96.2816 26.5574C95.8916 27.1374 95.3366 27.5824 94.6166 27.8924C93.9066 28.2024 93.0616 28.3574 92.0816 28.3574H88.9916L90.5666 26.9024V30.9974H87.0266ZM93.3116 30.9974L90.7316 27.1724H94.4816L97.0916 30.9974H93.3116ZM90.5666 27.2924L88.9916 25.6874H91.8566C92.3466 25.6874 92.7066 25.5774 92.9366 25.3574C93.1766 25.1374 93.2966 24.8374 93.2966 24.4574C93.2966 24.0774 93.1766 23.7774 92.9366 23.5574C92.7066 23.3374 92.3466 23.2274 91.8566 23.2274H88.9916L90.5666 21.6224V27.2924ZM109.93 31.2374C109.09 31.2374 108.31 31.1074 107.59 30.8474C106.88 30.5774 106.26 30.1974 105.73 29.7074C105.21 29.2174 104.805 28.6374 104.515 27.9674C104.225 27.2974 104.08 26.5574 104.08 25.7474C104.08 24.9374 104.225 24.1974 104.515 23.5274C104.805 22.8574 105.21 22.2774 105.73 21.7874C106.26 21.2974 106.88 20.9224 107.59 20.6624C108.31 20.3924 109.09 20.2574 109.93 20.2574C110.96 20.2574 111.87 20.4374 112.66 20.7974C113.46 21.1574 114.12 21.6774 114.64 22.3574L112.405 24.3524C112.095 23.9624 111.75 23.6624 111.37 23.4524C111 23.2324 110.58 23.1224 110.11 23.1224C109.74 23.1224 109.405 23.1824 109.105 23.3024C108.805 23.4224 108.545 23.5974 108.325 23.8274C108.115 24.0574 107.95 24.3374 107.83 24.6674C107.71 24.9874 107.65 25.3474 107.65 25.7474C107.65 26.1474 107.71 26.5124 107.83 26.8424C107.95 27.1624 108.115 27.4374 108.325 27.6674C108.545 27.8974 108.805 28.0724 109.105 28.1924C109.405 28.3124 109.74 28.3724 110.11 28.3724C110.58 28.3724 111 28.2674 111.37 28.0574C111.75 27.8374 112.095 27.5324 112.405 27.1424L114.64 29.1374C114.12 29.8074 113.46 30.3274 112.66 30.6974C111.87 31.0574 110.96 31.2374 109.93 31.2374ZM115.276 30.9974L119.866 20.4974H123.346L127.936 30.9974H124.276L120.886 22.1774H122.266L118.876 30.9974H115.276ZM118.006 29.1674L118.906 26.6174H123.736L124.636 29.1674H118.006ZM133.316 31.2374C132.436 31.2374 131.586 31.1374 130.766 30.9374C129.946 30.7374 129.271 30.4774 128.741 30.1574L129.881 27.5774C130.381 27.8674 130.936 28.1024 131.546 28.2824C132.166 28.4524 132.766 28.5374 133.346 28.5374C133.686 28.5374 133.951 28.5174 134.141 28.4774C134.341 28.4274 134.486 28.3624 134.576 28.2824C134.666 28.1924 134.711 28.0874 134.711 27.9674C134.711 27.7774 134.606 27.6274 134.396 27.5174C134.186 27.4074 133.906 27.3174 133.556 27.2474C133.216 27.1674 132.841 27.0874 132.431 27.0074C132.021 26.9174 131.606 26.8024 131.186 26.6624C130.776 26.5224 130.396 26.3374 130.046 26.1074C129.706 25.8774 129.431 25.5774 129.221 25.2074C129.011 24.8274 128.906 24.3574 128.906 23.7974C128.906 23.1474 129.086 22.5574 129.446 22.0274C129.816 21.4874 130.361 21.0574 131.081 20.7374C131.811 20.4174 132.716 20.2574 133.796 20.2574C134.506 20.2574 135.206 20.3324 135.896 20.4824C136.586 20.6324 137.206 20.8624 137.756 21.1724L136.691 23.7374C136.171 23.4774 135.666 23.2824 135.176 23.1524C134.696 23.0224 134.226 22.9574 133.766 22.9574C133.426 22.9574 133.156 22.9874 132.956 23.0474C132.756 23.1074 132.611 23.1874 132.521 23.2874C132.441 23.3874 132.401 23.4974 132.401 23.6174C132.401 23.7974 132.506 23.9424 132.716 24.0524C132.926 24.1524 133.201 24.2374 133.541 24.3074C133.891 24.3774 134.271 24.4524 134.681 24.5324C135.101 24.6124 135.516 24.7224 135.926 24.8624C136.336 25.0024 136.711 25.1874 137.051 25.4174C137.401 25.6474 137.681 25.9474 137.891 26.3174C138.101 26.6874 138.206 27.1474 138.206 27.6974C138.206 28.3374 138.021 28.9274 137.651 29.4674C137.291 29.9974 136.751 30.4274 136.031 30.7574C135.311 31.0774 134.406 31.2374 133.316 31.2374ZM143.399 24.3974H148.079V26.9474H143.399V24.3974ZM143.639 28.3274H148.889V30.9974H140.159V20.4974H148.694V23.1674H143.639V28.3274Z" fill="white"/>
<defs>
<clipPath id="clip0_209_2">
<rect width="30.3687" height="30.5953" fill="white" transform="translate(11.8101 11.8982)"/>
</clipPath>
</defs>
</svg>
