<svg width="40" height="40" viewBox="0 0 40 40" fill="none" xmlns="http://www.w3.org/2000/svg">
<path d="M32.2423 26.1241H14.2472C13.5737 26.1241 12.9794 25.6843 12.7825 25.0401L6.9581 5.99862H1.83833C0.992399 5.99862 0.306641 5.31286 0.306641 4.46693C0.306641 3.621 0.992399 2.93524 1.83833 2.93524H8.09155C8.76506 2.93524 9.35935 3.37506 9.55628 4.0188L15.3806 23.0607H31.2244L35.8567 12.0365H19.9998C19.1538 12.0365 18.4681 11.3508 18.4681 10.5048C18.4681 9.65891 19.1538 8.97316 19.9998 8.97316H38.1612C38.6741 8.97316 39.1533 9.23004 39.4369 9.65716C39.7205 10.0843 39.7721 10.6252 39.5734 11.0983L33.6541 25.1859C33.4152 25.7543 32.8589 26.1241 32.2423 26.1241Z" fill="black"/>
<path d="M12.9453 35.5313C14.4341 35.5313 15.6411 34.3244 15.6411 32.8355C15.6411 31.3467 14.4341 30.1398 12.9453 30.1398C11.4564 30.1398 10.2495 31.3467 10.2495 32.8355C10.2495 34.3244 11.4564 35.5313 12.9453 35.5313Z" fill="black"/>
<path d="M32.9492 35.5313C34.438 35.5313 35.645 34.3244 35.645 32.8355C35.645 31.3467 34.438 30.1398 32.9492 30.1398C31.4604 30.1398 30.2534 31.3467 30.2534 32.8355C30.2534 34.3244 31.4604 35.5313 32.9492 35.5313Z" fill="black"/>
</svg>
